<?xml version="1.0" encoding="UTF-8"?>
<!-- Created with Inkscape (http://www.inkscape.org/) -->
<svg width="189mm" height="172mm" version="1.1" viewBox="0 0 189 172" xml:space="preserve" xmlns="http://www.w3.org/2000/svg"><g transform="translate(-1.22 -.67)"><path d="m129 59.9-5.61-4.95-2e-3 -2.82 0.818-0.764c0.45-0.42 3.03-2.72 5.72-5.11l4.91-4.35 0.572 1.98c0.314 1.09 0.612 2.05 0.66 2.14 0.0487 0.0872-1.77 1.77-4.04 3.74s-4.11 3.65-4.09 3.72c0.0354 0.109 4.46 4.05 7.68 6.85l0.455 0.395-0.607 2.06c-0.334 1.13-0.661 2.06-0.727 2.06s-2.65-2.23-5.73-4.95z" fill="#34424a"/><path d="m142 62.8-0.639-2.13 1.83-1.6c1.01-0.882 2.06-1.8 2.35-2.03 0.284-0.237 1.17-1.02 1.96-1.75 0.796-0.725 1.6-1.44 1.79-1.59l0.347-0.268-0.376-0.346c-0.207-0.19-2.04-1.8-4.07-3.58s-3.7-3.35-3.7-3.5c-6e-3 -0.242 1.04-3.81 1.16-3.94 0.0509-0.0562 1.17 0.91 8.38 7.21l3.06 2.67 0.0232 2.8-1.44 1.3c-0.793 0.714-1.83 1.64-2.3 2.05-1.35 1.19-4.95 4.4-6.24 5.56-0.643 0.58-1.24 1.1-1.33 1.16-0.0991 0.0657-0.414-0.728-0.802-2.03z" fill="#0174de"/><path d="m56.9 138c-3.12-0.471-5.91-1.43-8.56-2.94-2.13-1.22-2.07-0.997-0.693-2.58 4.36-5 6.83-10.6 8-18.2 0.229-1.48 0.258-6.94 0.304-57.6l0.051-56 27.4 0.088-2e-3 56c-1e-3 37-0.056 56.6-0.161 57.8-0.569 6.35-1.83 10.5-4.26 13.9-4.67 6.67-14 10.6-22.1 9.39z" fill="#34424a"/><path d="m54.5 172c-4.2-0.526-6.65-1.01-10.1-2-17.6-5.11-32.5-18.7-39.1-36-2.77-7.21-4.24-14.6-4.5-22.7l-0.0973-3.04 13.3-5e-3c7.32-4e-3 13.6 0.0344 13.9 0.083l0.585 0.0884v1.18c0 3.79 0.676 8.43 1.74 12 3.15 10.5 11.6 18.9 21.7 21.9 3.18 0.923 4.01 1.03 7.98 1.03 3.32 1e-3 3.93-0.0432 5.46-0.398 5.77-1.34 10-3.5 14.2-7.22 4.84-4.31 7.93-9.87 9.27-16.7 0.248-1.26 0.789-5.38 0.789-5.99 0-0.074 5.86-0.134 13-0.134h13v1.09c0 1.5-0.271 4.46-0.636 6.92-2.63 17.8-11.1 31.7-25.1 41-6.53 4.38-14.5 7.41-22.6 8.63-2.25 0.337-10.8 0.494-12.9 0.236z" fill="#34424a"/><path d="m160 172c-0.612-1.33-4.25-9.6-4.95-11.2-0.282-0.664-1.05-2.45-1.72-3.96-1.2-2.76-2.29-5.25-3.97-9.13-0.494-1.14-1.51-3.46-2.26-5.17-0.749-1.71-1.66-3.8-2.03-4.65-0.719-1.67-2.04-4.72-3.78-8.7-0.599-1.37-2.25-5.17-3.66-8.44-1.42-3.27-3.13-7.23-3.81-8.79s-1.37-3.17-1.53-3.58l-0.291-0.732-41.5-0.0875v-27.4l25.6-0.0925c23.2-0.0835 25.8-0.121 27.2-0.385 2.35-0.441 3.58-0.796 5.35-1.54 8.36-3.54 13.3-11.3 14.2-22.1 0.377-4.55-0.204-9.19-1.69-13.4-0.662-1.9-1.1-2.88-1.98-4.36-3.42-5.82-8.67-9.14-15.6-9.85-0.999-0.103-6.93-0.176-14.2-0.176l-12.5-1.53e-4v45h-26.5v-72.4l27.5 0.0026c16.3 0.0015 28.4 0.0712 29.7 0.172 4.68 0.353 9.52 1.42 13.8 3.05 3.98 1.51 9.54 4.91 12.9 7.86 3.52 3.14 7.41 8.18 9.4 12.2 2.27 4.57 3.02 6.56 4.64 12.3 0.354 1.26 1.08 5.44 1.34 7.67 0.0378 0.332 0.141 1.22 0.228 1.98 0.462 3.99 0.333 12.3-0.252 16.2-1.87 12.4-5.64 20.8-13 28.9-4.39 4.82-10.1 8.93-15.9 11.5-0.814 0.354-1.5 0.661-1.52 0.682-0.0231 0.0213 1.13 2.67 2.55 5.88 1.43 3.21 3.21 7.24 3.96 8.94 0.751 1.71 2.29 5.2 3.43 7.76s2.82 6.36 3.74 8.44c2.63 5.95 5.91 13.3 9.51 21.4 1.82 4.08 4.29 9.62 5.49 12.3s2.21 4.97 2.25 5.04c0.0387 0.071-6.62 0.129-14.8 0.129h-14.9z" fill="#0174de"/><path d="m90.2 172 0.0176-0.733 2.48-1.64c4.22-2.8 6.53-4.65 10-8.05 5.18-5.03 10.1-11.9 13-18.3 0.403-0.876 0.763-1.59 0.8-1.59 0.0371 0 0.0674 6.98 0.0674 15.5v15.5l-26.4 2.7e-4z" fill="#0174de"/></g></svg>
